inDegrees=no
num_controls=7
num_derivatives=13
num_iterations=116
num_multipliers=7
num_parameters=0
num_slacks=7
num_states=26
objective=0.448426
objective_accelerations=0.048626
objective_balance=0.007492
objective_effort=0.036312
objective_height=0.351056
objective_ligament=0.004940
solver_duration=1641.342343
status=Solve_Succeeded
success=true
DataType=double
version=3
OpenSimVersion=4.5
endheader
time	/jointset/ground_pelvis/pelvis_tilt/value	/jointset/ground_pelvis/pelvis_tx/value	/jointset/ground_pelvis/pelvis_ty/value	/jointset/hip_l/hip_flexion_l/value	/jointset/hip_l/hip_adduction_l/value	/jointset/hip_l/hip_rotation_l/value	/jointset/back/lumbar_extension/value	/jointset/patellofemoral_l/patellar_flexion_l/value	/jointset/knee_l/knee_flexion_l/value	/jointset/knee_l/knee_adduction_l/value	/jointset/knee_l/knee_rotation_l/value	/jointset/ankle_l/ankle_angle_l/value	/jointset/subtalar_l/subtalar_angle_l/value	/jointset/ground_pelvis/pelvis_tilt/speed	/jointset/ground_pelvis/pelvis_tx/speed	/jointset/ground_pelvis/pelvis_ty/speed	/jointset/hip_l/hip_flexion_l/speed	/jointset/hip_l/hip_adduction_l/speed	/jointset/hip_l/hip_rotation_l/speed	/jointset/back/lumbar_extension/speed	/jointset/patellofemoral_l/patellar_flexion_l/speed	/jointset/knee_l/knee_flexion_l/speed	/jointset/knee_l/knee_adduction_l/speed	/jointset/knee_l/knee_rotation_l/speed	/jointset/ankle_l/ankle_angle_l/speed	/jointset/subtalar_l/subtalar_angle_l/speed	/forceset/tau_hip_flexion_l	/forceset/tau_hip_adduction_l	/forceset/tau_hip_rotation_l	/forceset/tau_knee_flexion_l	/forceset/tau_ankle_angle_l	/forceset/tau_subtalar_angle_l	/forceset/tau_lumbar_extension	lambda_cid13_p0	lambda_cid13_p1	lambda_cid13_p2	lambda_cid13_p3	lambda_cid13_p4	lambda_cid13_p5	lambda_cid14_p0	/jointset/ground_pelvis/pelvis_tilt/accel	/jointset/ground_pelvis/pelvis_tx/accel	/jointset/ground_pelvis/pelvis_ty/accel	/jointset/hip_l/hip_flexion_l/accel	/jointset/hip_l/hip_adduction_l/accel	/jointset/hip_l/hip_rotation_l/accel	/jointset/back/lumbar_extension/accel	/jointset/patellofemoral_l/patellar_flexion_l/accel	/jointset/knee_l/knee_flexion_l/accel	/jointset/knee_l/knee_adduction_l/accel	/jointset/knee_l/knee_rotation_l/accel	/jointset/ankle_l/ankle_angle_l/accel	/jointset/subtalar_l/subtalar_angle_l/accel	gamma_cid13_p0	gamma_cid13_p1	gamma_cid13_p2	gamma_cid13_p3	gamma_cid13_p4	gamma_cid13_p5	gamma_cid14_p0
1.5	-0.4480999305457978	-0.07466788956034799	0.7633743087754599	1.264945052374259	-0.3095258870976993	-0.04753360323064345	-0.3430061305328643	0.6851669127963786	0.6851669127962017	-0.1727756752059166	0.1740163606572389	0.034130658415257	-0.04938237456112075	0.7319222297261597	0.2649000682253727	0.4863656895379107	-2.332092933566665	0.03366447512580317	-0.6035917277333107	0.5627457043033329	-1.738133404736857	-1.73813340473691	0.004936709598392987	-0.002168339614941317	-0.229857537783786	0.0087083032665026	-0.2470151710557739	0.01819509123287289	-0.02129136557682196	-0.2018772476639247	0.1425548211667934	0.0420322430691752	0.2223940539846566	6.910166328396024	-22.17150150596144	6.22434505262402	-5.336216102322256	-608.3905092088546	-58.77456887590446	-28.51628588603684	0.6014442594465033	0.6488350941833092	-0.3173218132565775	-1.417045057086023	0.5624269106141804	-0.2768814031555916	1.605317831831011	-1.023790616585196	-1.023790616585179	0.01108099355336276	-0.01516025003848692	-0.1542735445501442	0.5356799735185075	2.482183091450189e-07	7.267317952624183e-07	-1.245169158326254e-06	-6.244537093319375e-08	3.282511238328213e-07	-3.916762576751355e-08	2.807027882233357e-07
1.51	-0.4407509685628684	-0.07198665084612699	0.768221204769386	1.241555381851624	-0.3091620581332591	-0.05358315553760782	-0.3372996019958805	0.6677366304906195	0.667736630490575	-0.1727274655269261	0.173995242373031	0.03182457588440561	-0.0492695099465126	0.7377746161457343	0.2713189631560508	0.4829210837465551	-2.345536135945346	0.03910541290277104	-0.6062182192668316	0.5785027980448025	-1.747688442333141	-1.747688442333186	0.004680172398256829	-0.002072814590655054	-0.2313097261305826	0.01387016397458761	-0.2393872885795306	0.01756478405941908	-0.02113959076151902	-0.2003384665994288	0.1422431850212212	0.04145991765848564	0.2165015520844768	7.032679842575044	-22.04902478531843	6.324334881829413	-5.249771412543621	-604.225732560801	-59.08042575923881	-29.50866157864954	0.5628199380388619	0.6341329310715345	-0.3718507165785416	-1.262182321309891	0.5354604213275713	-0.2402595474066563	1.552324387982894	-0.8862066009527259	-0.8862066009515845	-0.04760988933305116	0.0194205980841578	-0.1332935978447781	0.5071511326334985	1.331454986421521e-07	9.567372853255445e-07	-7.040084868370159e-07	5.453006552329624e-08	2.537384569908042e-07	3.460353650734825e-08	2.220998887975679e-07
1.52	-0.4333463458947802	-0.06924207993488692	0.7730308905544978	1.218040434406592	-0.3087437131490291	-0.05965591806370411	-0.3314372186729463	0.6502178285549374	0.6502178285550246	-0.1726825389824458	0.1739745816829465	0.02950545104646635	-0.04910488432218773	0.7430543667583536	0.2775665076291848	0.4789236477750522	-2.357148318046053	0.04456767908332076	-0.6082337715586065	0.5939166614933941	-1.755837330721535	-1.755837330721572	0.00428008269668146	-0.002076820789489041	-0.2324659992013947	0.01906050520987197	-0.2317594061032823	0.01693447688595509	-0.02098781594621745	-0.1987996855349376	0.1419315488756431	0.04088759224778477	0.2106090501843066	7.147081641427449	-21.92740422776323	6.42706159132682	-5.147849352425529	-600.1892044404021	-59.44087996054756	-30.48245571055446	0.4869170980554734	0.6145650026744519	-0.4278878492860329	-1.050841001491071	0.5666925913305509	-0.1546935548063896	1.536671773255357	-0.7425607750070294	-0.7425607750070728	-0.01762950673447763	-0.03506649466252849	-0.09509048935327336	0.5413760789583696	6.755578780071171e-08	1.103413084935627e-06	-4.057090392645855e-07	1.220419628723297e-07	2.146157680388841e-07	8.377204955131271e-08	1.909700169275613e-07
1.53	-0.4258917956170025	-0.06643591080500914	0.777797906755872	1.194418481717881	-0.3082706039664683	-0.06574630310533146	-0.3254224302889054	0.6326246689314285	0.632624668931404	-0.1726419241011004	0.1739537341390651	0.02717634959406144	-0.04888814983961689	0.7477564520866842	0.2836360276908182	0.4743939107287705	-2.366935296179104	0.05006147036826049	-0.6097701383205661	0.6089843109445383	-1.762551891556494	-1.762551891556484	0.003848509330949829	-0.002092147207602289	-0.2332953273825576	0.02429736665313297	-0.2241671897954895	0.01615511000295249	-0.02087339027125177	-0.1973051392520546	0.141788731057647	0.04019793308370652	0.2047330659234244	7.305508666419815	-21.76419532187589	6.525055379347574	-5.096888710855473	-596.2892486278733	-59.74247127664959	-31.4334771043898	0.4469828104361715	0.5984809107478797	-0.4783264418240477	-0.8965704448424794	0.5417101514383301	-0.1419479624429011	1.483305875475485	-0.599535972470342	-0.5995359724631535	-0.05488730475958014	0.01544166671021542	-0.06799730717331263	0.5163401525509577	5.454187034953638e-08	1.161551088439352e-06	-3.654496421037606e-07	1.369988499196912e-07	2.130949305951916e-07	1.06800247787449e-07	1.890302368355506e-07
1.54	-0.4183931987739011	-0.06356997939394704	0.7825170636248785	1.170707870402715	-0.3077423593201838	-0.0718498197596931	-0.3192586665414668	0.614971637252622	0.6149716372524902	-0.1726054181640627	0.1739327748074232	0.02484072619490995	-0.04861874694750536	0.7518636798235957	0.2895189638660545	0.4693517813014861	-2.374880043337369	0.05559477182770876	-0.6108600941046136	0.6237117341729468	-1.767811741780654	-1.767811741780596	0.003458293834533556	-0.002099178341877971	-0.2337703885507416	0.02959418711803319	-0.2165749734876924	0.01537574311994095	-0.0207589645962518	-0.1958105929691817	0.1416459132396449	0.03950827391961797	0.1988570816625508	7.455021921677575	-21.60145543381518	6.625442484670145	-5.02486156612593	-592.5272342418878	-60.09839756765535	-32.35758266075194	0.3679455797715906	0.5772482253949992	-0.5303663254865741	-0.6823948065339956	0.574594626232257	-0.06541135922397644	1.468626528708127	-0.4516186528471973	-0.4516186528472441	-0.009357932871403908	-0.03340743789500629	-0.02423708675749757	0.553367883286208	4.2743649997018e-08	1.216696092911199e-06	-3.361043399100348e-07	1.496942860328398e-07	2.128422729436235e-07	1.29216999000749e-07	1.879487392958132e-07
